<?xml version="1.0" standalone="no"?>
<!DOCTYPE svg PUBLIC "-//W3C//DTD SVG 20010904//EN"
 "http://www.w3.org/TR/2001/REC-SVG-20010904/DTD/svg10.dtd">
<svg version="1.0" xmlns="http://www.w3.org/2000/svg"
 width="336.000000pt" height="336.000000pt" viewBox="0 0 336.000000 336.000000"
 preserveAspectRatio="xMidYMid meet">
<metadata>
Created by potrace 1.16, written by Peter Selinger 2001-2019
</metadata>
<g transform="translate(0.000000,336.000000) scale(0.100000,-0.100000)"
fill="#000000" stroke="none">
<path d="M1530 3350 c-466 -54 -848 -263 -1167 -640 -36 -42 -153 -220 -153
-232 0 -5 -11 -25 -24 -46 -30 -48 -91 -202 -122 -306 -79 -275 -79 -628 1
-896 40 -134 105 -287 162 -382 71 -119 202 -284 291 -370 255 -244 597 -410
947 -459 118 -16 379 -16 480 0 96 16 280 63 351 90 469 181 831 543 997 996
66 182 62 144 62 575 l0 395 -39 115 c-203 600 -699 1028 -1321 1140 -125 23
-355 33 -465 20z m392 -95 c333 -43 666 -200 901 -425 206 -196 380 -489 444
-745 8 -33 21 -87 30 -120 30 -120 29 -432 -2 -600 -39 -207 -134 -435 -256
-608 -167 -240 -357 -402 -614 -527 -247 -120 -437 -163 -720 -163 -215 -1
-321 15 -503 74 -166 54 -385 166 -469 239 -13 11 -26 20 -31 20 -24 0 -302
297 -325 347 -6 13 -14 23 -19 23 -4 0 -8 5 -8 12 0 6 -6 19 -14 27 -21 24
-112 205 -140 280 -142 372 -141 807 2 1159 17 39 28 72 26 72 -1 0 15 32 37
71 25 43 39 79 36 91 -3 12 -1 18 6 15 7 -2 33 27 59 65 234 339 563 564 978
667 168 41 391 51 582 26z"/>
<path d="M1580 3014 c-14 -2 -52 -9 -85 -15 -205 -36 -393 -110 -559 -221
-299 -201 -502 -495 -588 -853 -30 -121 -32 -404 -4 -540 70 -349 267 -652
557 -857 165 -116 323 -186 534 -236 98 -23 131 -26 305 -27 215 0 313 15 490
77 351 123 649 389 804 719 141 300 170 618 85 936 -60 224 -177 423 -353 599
-208 207 -414 321 -706 390 -86 21 -137 26 -280 29 -96 2 -186 2 -200 -1z
m465 -158 c158 -41 290 -99 410 -180 344 -234 543 -587 562 -998 7 -135 -36
-392 -58 -356 -5 7 -11 10 -14 6 -4 -3 -1 -15 6 -26 11 -17 8 -32 -16 -94 -53
-137 -148 -302 -204 -352 -21 -20 -24 -17 -68 64 -29 53 -122 224 -186 340
-86 158 -142 248 -167 271 -28 26 -34 27 -157 30 -203 5 -262 1 -311 -22 -44
-19 -47 -19 -81 -2 -30 15 -61 18 -182 17 -136 -1 -148 -2 -178 -24 -29 -20
-35 -21 -58 -9 -14 8 -33 13 -43 11 -9 -1 -27 9 -40 23 -28 30 -35 103 -35
366 1 87 -3 159 -7 159 -4 0 -8 -6 -9 -12 0 -10 -2 -10 -6 0 -6 16 -23 16 -23
-1 0 -7 -9 -18 -20 -25 -11 -7 -20 -18 -20 -26 0 -8 -7 -17 -16 -20 -13 -5
-14 1 -8 39 6 44 5 45 -20 45 -14 0 -26 -5 -26 -10 0 -19 -48 -34 -64 -21 -8
7 -24 10 -35 6 -11 -3 -30 0 -43 8 -34 21 -96 21 -101 -1 -3 -9 -5 -3 -6 14
-1 18 9 44 24 64 16 22 25 47 25 71 0 32 3 37 28 42 16 3 37 18 47 34 10 15
31 41 46 58 20 21 25 33 18 42 -16 19 -1 33 35 33 22 0 51 14 95 46 81 59 222
126 336 160 132 39 311 44 455 14 155 -33 350 -109 404 -158 12 -11 31 -23 43
-26 12 -4 25 -15 28 -26 3 -10 17 -25 30 -34 13 -9 52 -48 86 -88 34 -40 73
-79 86 -86 13 -7 21 -18 17 -23 -3 -6 10 -43 30 -82 44 -89 96 -237 96 -274 0
-22 -2 -25 -10 -13 -8 13 -13 12 -32 -7 l-22 -23 22 0 c25 0 30 -18 6 -27 -22
-8 4 -25 28 -17 25 8 31 -25 27 -160 -4 -114 -3 -121 16 -124 54 -8 67 -13 62
-27 -9 -21 14 -33 58 -30 37 2 40 5 48 41 10 52 14 256 5 319 -22 155 -60 277
-130 413 -40 78 -45 83 -70 78 -25 -5 -26 -4 -21 27 8 51 -63 139 -217 272
-36 31 -76 58 -90 62 -14 3 -34 13 -45 23 -27 23 -105 72 -105 65 0 -3 -10 1
-22 9 -37 23 -206 76 -293 91 -105 19 -330 19 -437 0 -121 -21 -266 -69 -350
-115 -10 -6 -23 -10 -29 -10 -21 0 -181 -124 -190 -148 -6 -14 -15 -22 -23
-19 -13 5 -65 -44 -135 -127 -27 -32 -32 -45 -28 -73 5 -30 3 -33 -19 -33 -29
0 -74 -41 -74 -68 0 -10 -10 -27 -21 -38 -12 -10 -28 -32 -35 -49 -13 -29 -13
-29 -14 -5 0 14 9 33 20 43 24 20 26 37 5 37 -8 0 -15 -7 -15 -15 0 -8 -4 -15
-10 -15 -13 0 -13 0 13 51 153 299 468 539 822 628 117 29 124 29 320 26 155
-3 194 -7 280 -29z m-297 -1343 c24 -18 28 -29 33 -94 10 -114 10 -329 1 -329
-5 0 -22 7 -39 15 -55 27 -171 38 -282 26 -141 -15 -134 -17 -126 22 4 17 15
57 25 87 9 30 32 102 50 160 18 58 36 109 41 115 14 14 102 24 192 21 60 -2
84 -7 105 -23z m394 15 c8 -7 32 -53 52 -103 69 -166 118 -296 114 -300 -2 -2
-37 1 -78 7 -119 16 -276 6 -334 -21 -26 -13 -50 -20 -54 -17 -3 4 -9 69 -14
144 -14 279 -16 265 36 288 41 18 256 19 278 2z m170 -186 c33 -70 77 -162 99
-206 21 -43 39 -83 39 -88 0 -20 -73 48 -92 86 -27 53 -148 337 -148 348 0 5
10 4 21 -3 13 -7 45 -61 81 -137z m32 76 c37 -69 105 -195 221 -408 78 -143
78 -134 -7 -127 -40 4 -190 14 -332 22 -239 15 -262 15 -300 0 -51 -21 -141
-21 -194 0 -38 15 -62 15 -357 -5 -174 -12 -319 -19 -322 -16 -3 3 27 81 67
173 41 92 93 214 116 270 54 129 62 143 79 143 11 0 11 -4 0 -27 -29 -59 -204
-507 -200 -511 2 -3 136 3 297 12 266 16 296 16 330 2 48 -20 107 -20 157 0
37 14 66 14 342 0 167 -9 305 -13 308 -11 2 3 -56 125 -130 271 -155 308 -144
284 -127 284 8 0 31 -33 52 -72z m-985 -55 c-22 -65 -48 -148 -59 -184 -14
-47 -32 -80 -60 -110 -22 -24 -40 -39 -40 -34 0 6 21 64 46 130 25 66 58 155
73 197 25 72 54 118 72 118 4 0 -10 -53 -32 -117z m-809 -42 c0 -7 192 -6 310
3 70 6 95 3 140 -13 66 -23 138 -33 146 -20 3 5 9 7 14 4 9 -5 -23 -103 -48
-151 -5 -10 -24 -53 -42 -94 -18 -41 -45 -103 -61 -138 -16 -34 -29 -67 -29
-73 0 -14 129 -8 417 17 100 9 189 14 198 10 15 -5 16 -18 12 -94 -3 -48 -9
-102 -12 -120 -13 -59 -4 -62 195 -62 98 0 185 3 194 6 14 5 16 27 16 140 l0
134 58 0 c31 0 131 -7 222 -14 91 -8 222 -18 293 -22 70 -4 127 -10 127 -14 0
-15 -148 -147 -225 -200 -142 -99 -291 -163 -465 -202 -135 -30 -388 -32 -515
-4 -462 101 -813 403 -954 824 -25 74 -27 104 -6 96 8 -4 15 -9 15 -13z m1680
-226 c100 -9 131 -21 180 -70 l45 -45 -60 0 c-33 0 -154 7 -268 15 -188 13
-211 13 -232 -1 -13 -9 -31 -14 -40 -12 -13 3 -13 7 2 38 41 79 128 97 373 75z
m-545 -6 c21 -6 54 -26 72 -44 51 -51 39 -87 -15 -49 -16 11 -35 14 -65 9 -63
-8 -460 -35 -464 -31 -2 2 18 26 44 54 44 46 52 51 108 57 33 4 65 8 70 10 25
8 214 4 250 -6z"/>
<path d="M1637 2489 c-23 -13 -47 -70 -54 -124 -7 -52 -7 -55 2 -87 6 -24 4
-28 -19 -34 -17 -4 -36 1 -59 15 -45 27 -61 26 -75 -4 -17 -37 -15 -60 8 -105
23 -45 44 -50 91 -23 28 17 29 17 57 -10 15 -15 31 -27 35 -27 4 0 17 -10 29
-22 21 -21 22 -21 29 -2 4 10 8 13 8 5 1 -11 4 -11 17 0 12 10 17 10 23 1 5
-9 14 -5 31 13 18 19 21 28 12 37 -9 9 -8 16 4 29 15 17 19 17 45 4 37 -20 99
-16 99 6 0 9 11 24 25 33 25 17 34 46 14 46 -8 0 -10 31 -8 102 4 102 4 102
-21 109 -24 7 -24 7 -2 8 12 1 22 7 22 16 0 13 -22 15 -134 15 -74 0 -140 2
-148 5 -7 2 -21 0 -31 -6z m83 -171 c0 -12 -9 -31 -20 -43 -13 -14 -18 -28
-14 -39 7 -18 26 -18 97 -1 39 10 28 -9 -39 -67 -63 -56 -92 -60 -137 -22 -30
25 -47 27 -102 9 -16 -5 -23 0 -33 27 -15 42 -3 55 37 38 30 -12 93 -7 120 9
11 7 11 15 1 46 -13 38 -8 102 11 136 9 18 13 15 44 -26 19 -25 35 -55 35 -67z"/>
<path d="M1605 2040 c-3 -5 -47 -10 -96 -10 -89 0 -90 0 -83 -22 8 -24 9 -35
6 -83 l-2 -29 -16 22 c-20 29 -34 28 -34 -4 0 -14 -3 -23 -8 -20 -10 6 -8 96
2 119 7 15 3 17 -30 17 -79 0 -84 -5 -84 -77 0 -60 1 -63 19 -53 11 5 30 10
42 10 18 0 20 -3 11 -12 -7 -7 -12 -19 -12 -27 0 -8 3 -12 6 -8 9 9 64 -14 64
-26 0 -7 9 -23 20 -37 18 -23 20 -24 20 -5 0 12 5 26 11 32 8 8 8 17 -1 32
-12 23 -5 61 11 61 5 0 9 15 9 33 0 19 3 36 6 40 11 11 34 -5 34 -23 0 -10 6
-23 14 -29 11 -10 16 -8 24 6 6 10 14 14 18 10 4 -4 0 -21 -9 -36 -9 -16 -17
-37 -17 -46 0 -9 -4 -13 -10 -10 -5 3 -10 1 -10 -5 0 -6 -4 -9 -9 -5 -5 3 -12
1 -15 -4 -4 -5 -2 -12 3 -15 4 -3 11 -24 15 -46 7 -42 29 -53 54 -28 17 17 15
28 -5 28 -14 1 -12 6 12 28 31 28 37 72 9 72 -17 0 -17 0 1 37 12 23 13 37 5
57 -8 21 -7 28 6 33 17 6 54 -28 54 -52 0 -13 3 -13 21 4 l21 19 -28 31 c-29
33 -39 37 -49 21z"/>
<path d="M2280 2015 c0 -9 -13 -29 -30 -45 -34 -33 -36 -40 -16 -40 21 0 46
-28 46 -51 0 -24 -40 -80 -52 -73 -4 3 -6 -14 -3 -37 3 -24 1 -47 -6 -55 -13
-16 -80 -19 -95 -4 -6 6 -21 6 -39 1 l-30 -8 30 -14 c17 -7 37 -18 45 -25 8
-6 34 -14 58 -18 40 -6 42 -5 42 19 0 16 4 24 11 20 7 -5 9 7 5 39 -2 25 -1
46 4 46 4 0 22 -16 40 -36 l32 -37 -7 77 c-4 42 -8 116 -8 166 -1 66 -5 90
-14 90 -7 0 -13 -7 -13 -15z"/>
<path d="M1260 1757 c0 -76 4 -116 10 -112 6 3 10 12 10 19 0 21 22 34 68 40
31 4 42 2 39 -7 -3 -7 -10 -11 -16 -10 -6 2 -16 -6 -23 -16 -6 -10 -17 -17
-23 -14 -7 2 -15 -5 -18 -16 -6 -26 6 -30 78 -25 42 3 54 1 40 -5 -11 -5 -55
-10 -97 -10 -79 -1 -96 -11 -56 -32 23 -12 195 -8 217 5 9 6 8 13 -5 27 -9 10
-13 19 -9 19 5 0 4 5 -3 12 -16 16 -15 28 1 28 12 0 43 57 35 65 -2 2 -17 1
-34 -4 -37 -10 -84 14 -84 44 0 15 -2 17 -9 6 -5 -8 -7 -20 -4 -28 8 -21 -25
-27 -53 -8 -24 15 -25 21 -19 61 4 28 3 43 -4 42 -5 -2 -17 6 -25 17 -14 18
-15 10 -16 -98z"/>
<path d="M2374 1698 c1 -53 5 -72 14 -70 6 1 12 -2 12 -8 0 -5 1 -13 2 -17 3
-16 50 -95 66 -113 9 -9 35 -38 57 -64 22 -25 45 -46 51 -46 7 0 15 -6 17 -12
3 -8 6 -7 6 4 1 9 -3 20 -9 23 -5 3 -10 17 -10 30 0 13 -4 27 -10 30 -5 3 -10
12 -10 20 0 25 -163 295 -178 295 -5 0 -8 -33 -8 -72z"/>
</g>
</svg>
